# xmcd CD database file
#
# Track frame offsets:
#	150
#	14860
#	29423
#	51460
#	68305
#	83390
#	98755
#	112000
#	128233
#	142668
#	160375
#	178755
#
# Disc length: 2656 seconds
#
# Revision: 2
# Processed by: cddbd v1.4PL0 Copyright (c) Steve Scherf et al.
# Submitted via: CDex 1.40Release
#
DISCID=9b0a5e0c
DTITLE=Bill Wyman's Rhythm Kings - Struttin' Our Stuff
DYEAR=1900
DGENRE=
TTITLE0=Green River
TTITLE1=Walking on My Own
TTITLE2=Melody
TTITLE3=Stuff (Can't Get Enough)
TTITLE4=Bad to Be Alone
TTITLE5=I'm Mad
TTITLE6=Down in the Bottom
TTITLE7=Motorvatin' Mama
TTITLE8=Jitterbug Boogie
TTITLE9=Going Crazy Overnight
TTITLE10=Hole in My Soul
TTITLE11=Tobacco Road
EXTD=
EXTT0=
EXTT1=
EXTT2=
EXTT3=
EXTT4=
EXTT5=
EXTT6=
EXTT7=
EXTT8=
EXTT9=
EXTT10=
EXTT11=
PLAYORDER=
